<svg width="198" height="108" viewBox="0 0 198 108" fill="none" xmlns="http://www.w3.org/2000/svg">
<g clip-path="url(#clip0_47_278)">
<path d="M139.689 73.9843C143.61 74.1957 145.153 79.1713 142.038 81.5634L137.634 84.9464C136.655 85.6984 136.053 86.8407 135.987 88.0736L135.688 93.6192C135.476 97.5406 130.501 99.0828 128.109 95.9684L124.726 91.564C123.974 90.5848 122.831 89.9831 121.598 89.9167L116.053 89.6178C112.131 89.4064 110.589 84.4308 113.704 82.0387L118.108 78.6557C119.087 77.9037 119.689 76.7614 119.755 75.5285L120.054 69.9829C120.266 66.0615 125.241 64.5193 127.633 67.6337L131.016 72.0381C131.768 73.0173 132.911 73.619 134.144 73.6854L139.689 73.9843Z" fill="#9495BC"/>
<mask id="mask0_47_278" style="mask-type:alpha" maskUnits="userSpaceOnUse" x="111" y="65" width="33" height="33">
<path d="M139.579 73.9262C143.5 74.1375 145.042 79.1132 141.928 81.5053L137.523 84.8882C136.544 85.6403 135.942 86.7826 135.876 88.0155L135.577 93.5611C135.366 97.4825 130.39 99.0247 127.998 95.9103L124.615 91.5059C123.863 90.5267 122.721 89.925 121.488 89.8586L115.942 89.5597C112.021 89.3483 110.479 84.3727 113.593 81.9806L117.997 78.5976C118.977 77.8456 119.578 76.7033 119.645 75.4704L119.944 69.9248C120.155 66.0034 125.131 64.4612 127.523 67.5756L130.906 71.98C131.658 72.9591 132.8 73.5609 134.033 73.6273L139.579 73.9262Z" fill="#9495BC"/>
</mask>
<g mask="url(#mask0_47_278)">
<g filter="url(#filter0_f_47_278)">
<path d="M129.434 81.7228L143.132 78.3042C145.444 79.5222 139.245 83.3463 135.857 85.1061L129.434 81.7228Z" fill="#7B7BAA"/>
</g>
<g filter="url(#filter1_f_47_278)">
<path d="M127.617 83.3158L132.138 96.0597C131.066 98.2286 125.859 93.4277 123.964 90.2418L127.617 83.3158Z" fill="#60618E"/>
</g>
<g filter="url(#filter2_f_47_278)">
<path d="M126.381 81.7225L112.37 86.389C110.228 85.1234 115.968 79.4462 119.571 77.4233L126.381 81.7225Z" fill="#61618A"/>
</g>
<g filter="url(#filter3_f_47_278)">
<path d="M128.377 80.4264L124.45 67.7396C125.546 65.5218 130.383 70.1898 132.098 73.3371L128.377 80.4264Z" fill="#7B7BA4"/>
</g>
<g filter="url(#filter4_f_47_278)">
<path d="M127.24 82.8405L112.789 86.7366C111.663 89.0147 119.644 90.6199 123.811 90.3173L127.24 82.8405Z" fill="#4F517C"/>
</g>
<g filter="url(#filter5_f_47_278)">
<path d="M127.855 80.9878L122.733 66.9242C120.366 65.9979 119.452 74.0877 120.112 78.2135L127.855 80.9878Z" fill="#505178"/>
</g>
<g filter="url(#filter6_f_47_278)">
<path d="M125.869 72.6289L129.168 80.0639L136.242 79.6125L129.418 82.4741L130.448 90.6125L127.289 83.6314L119.761 84.2235L127.04 81.2212L125.869 72.6289Z" fill="#B9B9D4"/>
</g>
</g>
<path d="M100.528 14.4993C100.941 10.779 96.5035 8.55229 93.7681 11.1075L81.0262 23.0099C80.1662 23.8132 78.9981 24.2008 77.8285 24.0709L60.4988 22.1458C56.7785 21.7325 54.5518 26.1705 57.107 28.9059L69.0094 41.6478C69.8127 42.5078 70.2003 43.6759 70.0703 44.8455L68.1453 62.1752C67.732 65.8955 72.17 68.1223 74.9054 65.5671L87.6473 53.6646C88.5073 52.8613 89.6754 52.4738 90.845 52.6037L108.175 54.5287C111.895 54.942 114.122 50.504 111.567 47.7686L99.6641 35.0267C98.8608 34.1667 98.4732 32.9987 98.6032 31.829L100.528 14.4993Z" fill="#8AA6E4"/>
<mask id="mask1_47_278" style="mask-type:alpha" maskUnits="userSpaceOnUse" x="56" y="10" width="57" height="57">
<path d="M100.594 14.6907C101.007 10.9704 96.5689 8.7437 93.8335 11.2989L81.0916 23.2013C80.2316 24.0047 79.0636 24.3922 77.8939 24.2623L60.5642 22.3372C56.8439 21.9239 54.6172 26.3619 57.1724 29.0973L69.0748 41.8392C69.8782 42.6992 70.2657 43.8673 70.1358 45.0369L68.2107 62.3666C67.7975 66.0869 72.2354 68.3137 74.9708 65.7585L87.7128 53.856C88.5728 53.0527 89.7408 52.6652 90.9105 52.7951L108.24 54.7201C111.96 55.1334 114.187 50.6954 111.632 47.96L99.7296 35.2181C98.9262 34.3581 98.5387 33.1901 98.6686 32.0204L100.594 14.6907Z" fill="#9495BC"/>
</mask>
<g mask="url(#mask1_47_278)">
<g filter="url(#filter7_f_47_278)">
<path d="M84.9799 36.0006L97.681 10.2586C96.0835 5.44374 85.5896 16.4974 80.5424 22.626L84.9799 36.0006Z" fill="#7C94D4"/>
</g>
<g filter="url(#filter8_f_47_278)">
<path d="M81.8583 38.2394L56.0837 24.4115C51.0094 25.9511 59.4108 38.5671 65.5684 43.6423L81.8583 38.2394Z" fill="#758ECF"/>
</g>
<g filter="url(#filter9_f_47_278)">
<path d="M83.9728 40.7442L69.8464 67.5815C71.6933 72.355 85.1033 62.6368 90.4021 56.0132L83.9728 40.7442Z" fill="#728BCB"/>
</g>
<g filter="url(#filter10_f_47_278)">
<path d="M86.673 38.0381L113.162 52.0746C118.389 50.4887 109.778 37.6382 103.455 32.4767L86.673 38.0381Z" fill="#7C94D1"/>
</g>
<g filter="url(#filter11_f_47_278)">
<path d="M82.5769 39.1851L69.2573 68.1927C64.0558 69.7708 63.49 52.4526 65.5998 43.8046L82.5769 39.1851Z" fill="#5D71AA"/>
</g>
<g filter="url(#filter12_f_47_278)">
<path d="M85.7488 38.5484L113.974 54.2158C115.1 59.535 97.4697 58.6799 88.8846 55.866L85.7488 38.5484Z" fill="#6478AE"/>
</g>
<g filter="url(#filter13_f_47_278)">
<path d="M98.2458 43.884L86.0841 37.1928L89.9685 25.7423L83.6852 35.7306L71.1518 31.9854L82.5759 38.3568L78.4121 50.4646L85.0351 39.799L98.2458 43.884Z" fill="#95B3F5"/>
</g>
</g>
</g>
<defs>
<filter id="filter0_f_47_278" x="128.09" y="76.9601" width="16.8901" height="9.48993" filterUnits="userSpaceOnUse" color-interpolation-filters="sRGB">
<feFlood flood-opacity="0" result="BackgroundImageFix"/>
<feBlend mode="normal" in="SourceGraphic" in2="BackgroundImageFix" result="shape"/>
<feGaussianBlur stdDeviation="0.672043" result="effect1_foregroundBlur_47_278"/>
</filter>
<filter id="filter1_f_47_278" x="122.62" y="81.9718" width="10.8622" height="15.9763" filterUnits="userSpaceOnUse" color-interpolation-filters="sRGB">
<feFlood flood-opacity="0" result="BackgroundImageFix"/>
<feBlend mode="normal" in="SourceGraphic" in2="BackgroundImageFix" result="shape"/>
<feGaussianBlur stdDeviation="0.672043" result="effect1_foregroundBlur_47_278"/>
</filter>
<filter id="filter2_f_47_278" x="110.56" y="76.0793" width="17.1652" height="11.654" filterUnits="userSpaceOnUse" color-interpolation-filters="sRGB">
<feFlood flood-opacity="0" result="BackgroundImageFix"/>
<feBlend mode="normal" in="SourceGraphic" in2="BackgroundImageFix" result="shape"/>
<feGaussianBlur stdDeviation="0.672043" result="effect1_foregroundBlur_47_278"/>
</filter>
<filter id="filter3_f_47_278" x="123.106" y="65.818" width="10.3356" height="15.9523" filterUnits="userSpaceOnUse" color-interpolation-filters="sRGB">
<feFlood flood-opacity="0" result="BackgroundImageFix"/>
<feBlend mode="normal" in="SourceGraphic" in2="BackgroundImageFix" result="shape"/>
<feGaussianBlur stdDeviation="0.672043" result="effect1_foregroundBlur_47_278"/>
</filter>
<filter id="filter4_f_47_278" x="111.337" y="81.4962" width="17.2473" height="10.2018" filterUnits="userSpaceOnUse" color-interpolation-filters="sRGB">
<feFlood flood-opacity="0" result="BackgroundImageFix"/>
<feBlend mode="normal" in="SourceGraphic" in2="BackgroundImageFix" result="shape"/>
<feGaussianBlur stdDeviation="0.672043" result="effect1_foregroundBlur_47_278"/>
</filter>
<filter id="filter5_f_47_278" x="118.559" y="65.507" width="10.6403" height="16.8249" filterUnits="userSpaceOnUse" color-interpolation-filters="sRGB">
<feFlood flood-opacity="0" result="BackgroundImageFix"/>
<feBlend mode="normal" in="SourceGraphic" in2="BackgroundImageFix" result="shape"/>
<feGaussianBlur stdDeviation="0.672043" result="effect1_foregroundBlur_47_278"/>
</filter>
<filter id="filter6_f_47_278" x="118.417" y="71.2848" width="19.1694" height="20.6716" filterUnits="userSpaceOnUse" color-interpolation-filters="sRGB">
<feFlood flood-opacity="0" result="BackgroundImageFix"/>
<feBlend mode="normal" in="SourceGraphic" in2="BackgroundImageFix" result="shape"/>
<feGaussianBlur stdDeviation="0.672043" result="effect1_foregroundBlur_47_278"/>
</filter>
<filter id="filter7_f_47_278" x="78.3992" y="6.93339" width="21.4252" height="31.2104" filterUnits="userSpaceOnUse" color-interpolation-filters="sRGB">
<feFlood flood-opacity="0" result="BackgroundImageFix"/>
<feBlend mode="normal" in="SourceGraphic" in2="BackgroundImageFix" result="shape"/>
<feGaussianBlur stdDeviation="1.07164" result="effect1_foregroundBlur_47_278"/>
</filter>
<filter id="filter8_f_47_278" x="52.3799" y="22.2683" width="31.6218" height="23.5175" filterUnits="userSpaceOnUse" color-interpolation-filters="sRGB">
<feFlood flood-opacity="0" result="BackgroundImageFix"/>
<feBlend mode="normal" in="SourceGraphic" in2="BackgroundImageFix" result="shape"/>
<feGaussianBlur stdDeviation="1.07164" result="effect1_foregroundBlur_47_278"/>
</filter>
<filter id="filter9_f_47_278" x="67.7032" y="38.6009" width="24.8422" height="32.3964" filterUnits="userSpaceOnUse" color-interpolation-filters="sRGB">
<feFlood flood-opacity="0" result="BackgroundImageFix"/>
<feBlend mode="normal" in="SourceGraphic" in2="BackgroundImageFix" result="shape"/>
<feGaussianBlur stdDeviation="1.07164" result="effect1_foregroundBlur_47_278"/>
</filter>
<filter id="filter10_f_47_278" x="84.5296" y="30.3333" width="32.3881" height="23.8847" filterUnits="userSpaceOnUse" color-interpolation-filters="sRGB">
<feFlood flood-opacity="0" result="BackgroundImageFix"/>
<feBlend mode="normal" in="SourceGraphic" in2="BackgroundImageFix" result="shape"/>
<feGaussianBlur stdDeviation="1.07164" result="effect1_foregroundBlur_47_278"/>
</filter>
<filter id="filter11_f_47_278" x="62.3086" y="37.0418" width="22.4115" height="33.3949" filterUnits="userSpaceOnUse" color-interpolation-filters="sRGB">
<feFlood flood-opacity="0" result="BackgroundImageFix"/>
<feBlend mode="normal" in="SourceGraphic" in2="BackgroundImageFix" result="shape"/>
<feGaussianBlur stdDeviation="1.07164" result="effect1_foregroundBlur_47_278"/>
</filter>
<filter id="filter12_f_47_278" x="83.6055" y="36.4051" width="32.5634" height="23.8363" filterUnits="userSpaceOnUse" color-interpolation-filters="sRGB">
<feFlood flood-opacity="0" result="BackgroundImageFix"/>
<feBlend mode="normal" in="SourceGraphic" in2="BackgroundImageFix" result="shape"/>
<feGaussianBlur stdDeviation="1.07164" result="effect1_foregroundBlur_47_278"/>
</filter>
<filter id="filter13_f_47_278" x="69.0086" y="23.5989" width="31.3805" height="29.0087" filterUnits="userSpaceOnUse" color-interpolation-filters="sRGB">
<feFlood flood-opacity="0" result="BackgroundImageFix"/>
<feBlend mode="normal" in="SourceGraphic" in2="BackgroundImageFix" result="shape"/>
<feGaussianBlur stdDeviation="1.07164" result="effect1_foregroundBlur_47_278"/>
</filter>
<clipPath id="clip0_47_278">
<rect width="198" height="108" fill="white"/>
</clipPath>
</defs>
</svg>
