<svg width="120" height="147" viewBox="0 0 120 147" fill="none" xmlns="http://www.w3.org/2000/svg">
<path d="M72.8217 31.2472C69.1228 30.9206 67.8264 26.1687 70.8469 24.0089L75.1186 20.9545C76.0682 20.2755 76.6738 19.2155 76.7765 18.0526L77.2383 12.8216C77.5649 9.12277 82.3168 7.82635 84.4766 10.8469L87.531 15.1185C88.21 16.0681 89.27 16.6737 90.4329 16.7764L95.6639 17.2383C99.3627 17.5649 100.659 22.3168 97.6386 24.4765L93.367 27.5309C92.4174 28.21 91.8118 29.27 91.7091 30.4329L91.2472 35.6638C90.9206 39.3627 86.1688 40.6591 84.009 37.6386L80.9546 33.367C80.2755 32.4173 79.2155 31.8117 78.0526 31.709L72.8217 31.2472Z" fill="#F2F2F2"/>
<path d="M24.4008 92.3691C21.8449 89.6755 24.0193 85.2559 27.7129 85.637L48.5627 87.7881C49.724 87.9079 50.8797 87.5144 51.7265 86.7109L66.9315 72.2834C69.6251 69.7275 74.0447 71.9019 73.6636 75.5956L71.5125 96.4454C71.3926 97.6066 71.7861 98.7623 72.5897 99.6092L87.0172 114.814C89.5731 117.508 87.3987 121.927 83.705 121.546L62.8552 119.395C61.6939 119.275 60.5383 119.669 59.6914 120.472L44.4865 134.9C41.7929 137.456 37.3732 135.281 37.7543 131.588L39.9055 110.738C40.0253 109.577 39.6318 108.421 38.8282 107.574L24.4008 92.3691Z" fill="white"/>
<path d="M15.9481 51.2352C13.1803 48.7598 14.9858 44.1771 18.6982 44.2546L22.8023 44.3403C23.9695 44.3647 25.0891 43.878 25.8673 43.0078L28.6039 39.9481C31.0794 37.1803 35.6621 38.9858 35.5845 42.6982L35.4988 46.8023C35.4744 47.9695 35.9612 49.0891 36.8313 49.8673L39.8911 52.6039C42.6588 55.0794 40.8534 59.6621 37.1409 59.5845L33.0368 59.4988C31.8697 59.4744 30.7501 59.9612 29.9718 60.8313L27.2352 63.8911C24.7598 66.6588 20.1771 64.8534 20.2546 61.1409L20.3403 57.0368C20.3647 55.8697 19.878 54.7501 19.0078 53.9718L15.9481 51.2352Z" fill="#AFD1FF"/>
</svg>
