<svg width="40" height="40" viewBox="0 0 40 40" fill="none" xmlns="http://www.w3.org/2000/svg">
<g clip-path="url(#clip0_47_8)">
<path d="M36.6919 27.5716C36.2359 27.8876 35.7679 28.1356 35.2919 28.2876C33.7119 28.7876 31.7639 28.3276 30.0159 27.6076C28.7679 27.0916 27.4599 26.4236 26.0879 25.5796C26.8039 23.8316 27.4759 21.8356 28.0479 19.6276C28.9359 16.1996 29.3599 13.1796 29.4479 10.5276C29.5039 8.8876 29.4239 7.3876 29.2439 6.0236C28.9959 4.1476 28.4199 2.2396 27.1959 1.1156C26.8079 0.7676 26.3359 0.4756 25.8079 0.2356C28.3079 -0.0364003 30.5279 -0.0564003 32.4879 0.0875997C34.5479 0.2636 36.6439 0.7716 37.8679 1.9716C39.0919 3.1716 39.6319 5.2636 39.8479 7.3156C40.0479 9.2756 40.0639 11.4956 39.8319 14.0076C39.5959 16.4836 39.1159 19.2356 38.3279 22.2876C37.8359 24.1756 37.2719 25.9796 36.6959 27.5716H36.6919ZM6.50389 26.0196C6.45589 25.4676 6.47589 24.9356 6.58389 24.4476C6.93989 22.8276 8.31189 21.3756 9.81189 20.2156C10.8839 19.3956 12.1119 18.5956 13.5319 17.8276C14.6879 19.3236 16.0799 20.8996 17.7079 22.4996C20.2319 24.9836 22.6359 26.8596 24.8879 28.2596C26.2799 29.1276 27.6159 29.8076 28.8879 30.3356C30.6359 31.0556 32.5759 31.5156 34.1639 31.0156C34.6599 30.8516 35.1479 30.5916 35.6199 30.2556C34.6039 32.5556 33.5119 34.4916 32.4079 36.1156C31.2239 37.8116 29.7399 39.3756 28.0879 39.8316C26.4359 40.2916 24.3559 39.7156 22.4719 38.8756C20.6759 38.0716 18.7439 36.9716 16.6839 35.5156C14.6599 34.0756 12.5119 32.2836 10.2639 30.0716C8.87189 28.7036 7.59189 27.3116 6.50389 26.0196ZM22.8959 0.6476C23.3999 0.8836 23.8479 1.1676 24.2159 1.5036C25.4399 2.6236 26.0119 4.5396 26.2679 6.4156C26.4439 7.7516 26.5199 9.2196 26.4759 10.8316C24.5999 11.0836 22.5399 11.4996 20.3399 12.1116C16.9279 13.0556 14.0999 14.1996 11.7599 15.4516C10.3119 16.2236 9.05189 17.0396 7.96389 17.8796C6.46389 19.0316 5.09589 20.4836 4.73589 22.1076C4.62789 22.6196 4.60789 23.1716 4.66789 23.7476C3.18389 21.7196 2.05189 19.8036 1.19989 18.0356C0.319894 16.1556 -0.288106 14.0876 0.139894 12.4316C0.567894 10.7716 2.10789 9.2556 3.77589 8.0476C5.37189 6.8916 7.28789 5.7676 9.57989 4.7156C11.8399 3.6836 14.4679 2.7196 17.5039 1.8796C19.3839 1.3596 21.2319 0.9436 22.8959 0.6516V0.6476Z" fill="white"/>
</g>
<defs>
<clipPath id="clip0_47_8">
<rect width="40" height="40" fill="white" transform="translate(-0.000244141 -0.000610352)"/>
</clipPath>
</defs>
</svg>
