<svg width="347" height="145" viewBox="0 0 347 145" fill="none" xmlns="http://www.w3.org/2000/svg">
<path d="M71.9843 140V123.2H86.4083V140H84.0563V125.144H74.3363V140H71.9843ZM96.8776 140.24C92.8216 140.24 90.5176 137.528 90.5176 133.472C90.5176 129.44 92.8216 126.704 96.8776 126.704C100.958 126.704 103.262 129.44 103.262 133.472C103.262 137.528 100.958 140.24 96.8776 140.24ZM96.8776 138.416C99.6376 138.416 100.982 136.472 100.982 133.472C100.982 130.448 99.6376 128.528 96.8776 128.528C94.1416 128.528 92.7976 130.472 92.7976 133.472C92.7976 136.472 94.1656 138.416 96.8776 138.416ZM106.992 140V126.944H113.352C115.872 126.944 117.504 128.12 117.504 130.256C117.504 131.768 116.712 132.752 115.464 133.208C117 133.664 118.032 134.864 118.032 136.544C118.032 138.8 116.352 140 113.688 140H106.992ZM113.04 128.624H109.152V132.488H113.064C114.408 132.488 115.368 131.816 115.368 130.448C115.368 129.272 114.456 128.624 113.04 128.624ZM113.232 134.072H109.152V138.32H113.304C114.864 138.32 115.872 137.648 115.872 136.28C115.872 134.84 114.744 134.072 113.232 134.072ZM127.186 140.24C123.01 140.24 120.682 137.456 120.682 133.448C120.682 129.536 122.986 126.704 127.09 126.704C130.858 126.704 133.234 129.368 133.234 133.136C133.234 133.472 133.186 133.808 133.138 134.096H122.866C123.058 136.712 124.426 138.488 127.186 138.488C129.322 138.488 130.618 137.528 131.122 135.824L133.162 136.184C132.466 138.728 130.546 140.24 127.186 140.24ZM127.114 128.456C124.618 128.456 123.226 129.992 122.914 132.344H131.098C130.93 130.064 129.49 128.456 127.114 128.456ZM143.691 140.24C141.603 140.24 140.019 139.256 139.035 137.696V144.8H136.827V126.944H138.771L138.939 129.44C139.899 127.784 141.531 126.704 143.691 126.704C147.243 126.704 149.451 129.608 149.451 133.472C149.451 137.36 147.243 140.24 143.691 140.24ZM143.115 138.392C145.779 138.392 147.171 136.28 147.171 133.472C147.171 130.688 145.779 128.552 143.115 128.552C140.571 128.552 139.035 130.688 139.035 133.496C139.035 136.28 140.595 138.392 143.115 138.392ZM153.187 140V126.944H155.395V132.272H162.451V126.944H164.659V140H162.451V134.072H155.395V140H153.187ZM169.288 140V126.944H171.448V137L178.336 126.944H180.496V140H178.336V129.944L171.448 140H169.288ZM188.718 143.72V138.104H190.014C191.262 136.568 191.43 134.768 191.67 128.552L191.718 126.944H200.91V138.104H202.662V143.72H200.622V140H190.758V143.72H188.718ZM193.014 136.4C192.822 137.048 192.558 137.6 192.222 138.104H198.798V128.696H193.758V128.744C193.614 132.776 193.47 134.744 193.014 136.4ZM211.256 140.24C207.08 140.24 204.752 137.456 204.752 133.448C204.752 129.536 207.056 126.704 211.16 126.704C214.928 126.704 217.304 129.368 217.304 133.136C217.304 133.472 217.256 133.808 217.208 134.096H206.936C207.128 136.712 208.496 138.488 211.256 138.488C213.392 138.488 214.688 137.528 215.192 135.824L217.232 136.184C216.536 138.728 214.616 140.24 211.256 140.24ZM211.184 128.456C208.688 128.456 207.296 129.992 206.984 132.344H215.168C215 130.064 213.56 128.456 211.184 128.456ZM220.898 140V126.944H227.258C229.778 126.944 231.41 128.12 231.41 130.256C231.41 131.768 230.618 132.752 229.37 133.208C230.906 133.664 231.938 134.864 231.938 136.544C231.938 138.8 230.258 140 227.594 140H220.898ZM226.946 128.624H223.058V132.488H226.97C228.314 132.488 229.274 131.816 229.274 130.448C229.274 129.272 228.362 128.624 226.946 128.624ZM227.138 134.072H223.058V138.32H227.21C228.77 138.32 229.778 137.648 229.778 136.28C229.778 134.84 228.65 134.072 227.138 134.072ZM234.468 130.856C234.924 128.096 236.988 126.704 240.036 126.704C243.324 126.704 245.292 128.192 245.292 131.624V137.432C245.292 138.224 245.628 138.512 246.228 138.512C246.348 138.512 246.54 138.488 246.612 138.488L246.54 140.024C246.276 140.12 245.868 140.168 245.604 140.168C244.02 140.168 243.276 139.4 243.276 137.864V137.696C242.292 139.304 240.564 140.24 238.452 140.24C235.716 140.24 234.012 138.8 234.012 136.472C234.012 134.12 235.572 132.776 238.74 132.488L243.252 132.056V131.768C243.252 129.368 242.004 128.456 239.988 128.456C238.044 128.456 236.7 129.344 236.532 131.144L234.468 130.856ZM236.1 136.352C236.1 137.72 237.036 138.488 238.74 138.488C241.284 138.488 243.276 136.736 243.276 134.48V133.688L239.1 134.096C237.084 134.288 236.1 135.056 236.1 136.352ZM257.601 121.88H259.377C259.377 124.064 257.697 125.48 255.297 125.48C252.897 125.48 251.217 124.064 251.217 121.88H252.993C252.993 123.224 253.929 124.088 255.297 124.088C256.689 124.088 257.601 123.224 257.601 121.88ZM249.585 140V126.944H251.745V137L258.633 126.944H260.793V140H258.633V129.944L251.745 140H249.585ZM276.638 131.312L274.502 131.672C274.166 129.68 272.918 128.528 270.854 128.528C268.166 128.528 266.798 130.472 266.798 133.496C266.798 136.448 268.19 138.416 270.878 138.416C272.822 138.416 274.166 137.384 274.598 135.272L276.71 135.632C276.086 138.608 273.95 140.24 270.878 140.24C266.822 140.24 264.518 137.552 264.518 133.496C264.518 129.416 266.822 126.704 270.854 126.704C274.094 126.704 276.086 128.384 276.638 131.312Z" fill="white"/>
<path fill-rule="evenodd" clip-rule="evenodd" d="M190.7 14C197.8 14 203.6 19.3 204.5 26.1L200.6 23.4C200.1 23.1 199.5 23.2 199.2 23.7C198.9 24.2 199 24.8 199.5 25.1L205.2 29C205.4 29.1 205.6 29.2 205.8 29.2C206.1 29.2 206.4 29 206.6 28.8L210.5 23.1C210.8 22.6 210.7 22 210.2 21.7C209.7 21.4 209.1 21.5 208.8 22L206.4 25.5C205.2 17.8 198.6 12 190.7 12C190.1 12 189.7 12.4 189.7 13C189.7 13.6 190.1 14 190.7 14ZM149 10H159C159.6 10 160 9.6 160 9C160 8.4 159.6 8 159 8H149C148.4 8 148 8.4 148 9C148 9.6 148.4 10 149 10ZM142.1 40H140C139.3 40 138.6 40.1 138 40.2C137.5 40.3 137.1 40.8 137.2 41.4C137.3 41.9 137.7 42.2 138.2 42.2C138.3 42.2 138.3 42.2 138.4 42.2C138.9 42.1 139.5 42 140.1 42H142.2C142.8 42 143.2 41.6 143.2 41C143.2 40.4 142.7 40 142.1 40ZM152.1 40H148.1C147.5 40 147.1 40.4 147.1 41C147.1 41.6 147.5 42 148.1 42H152.1C152.7 42 153.1 41.6 153.1 41C153.1 40.4 152.7 40 152.1 40ZM208 40H179V11C179 4.9 174.1 0 168 0H140C133.9 0 129 4.9 129 11V79C129 85.1 133.9 90 140 90H208C214.1 90 219 85.1 219 79V51C219 44.9 214.1 40 208 40ZM140 88C135 88 131 84 131 79V48.2C131.3 48.1 131.6 47.9 131.7 47.6C132.2 46.5 132.8 45.5 133.7 44.6C134.1 44.2 134.1 43.6 133.7 43.2C133.3 42.8 132.7 42.8 132.3 43.2C131.8 43.7 131.4 44.2 131.1 44.7V11C131.1 6 135.1 2 140.1 2H168.1C173.1 2 177.1 6 177.1 11V79C177.1 84 173.1 88 168.1 88H140ZM217 79C217 84 213 88 208 88H174.3C177.1 86 179 82.7 179 79V42H208C213 42 217 46 217 51V79ZM162.1 40H158.1C157.5 40 157.1 40.4 157.1 41C157.1 41.6 157.5 42 158.1 42H162.1C162.7 42 163.1 41.6 163.1 41C163.1 40.4 162.6 40 162.1 40ZM172 40H168C167.4 40 167 40.4 167 41C167 41.6 167.4 42 168 42H172C172.6 42 173 41.6 173 41C173 40.4 172.6 40 172 40ZM210 59C209.4 59 209 59.4 209 60V70C209 70.6 209.4 71 210 71C210.6 71 211 70.6 211 70V60C211 59.4 210.6 59 210 59Z" fill="white"/>
</svg>
