<svg width="191" height="240" viewBox="0 0 191 240" fill="none" xmlns="http://www.w3.org/2000/svg">
<path d="M141.383 191.662C138.941 186.353 144.422 180.872 149.731 183.313L157.24 186.766C158.909 187.533 160.83 187.533 162.499 186.766L170.007 183.313C175.316 180.872 180.797 186.353 178.356 191.662L174.904 199.17C174.136 200.84 174.136 202.761 174.904 204.43L178.356 211.938C180.797 217.247 175.316 222.728 170.007 220.287L162.499 216.834C160.83 216.067 158.909 216.067 157.24 216.834L149.731 220.287C144.422 222.728 138.941 217.247 141.383 211.938L144.835 204.43C145.602 202.761 145.602 200.84 144.835 199.17L141.383 191.662Z" fill="#9495BC"/>
<mask id="mask0_47_53" style="mask-type:alpha" maskUnits="userSpaceOnUse" x="140" y="182" width="39" height="40">
<path d="M141.383 191.85C138.941 186.541 144.422 181.06 149.731 183.501L157.24 186.953C158.909 187.721 160.83 187.721 162.499 186.953L170.007 183.501C175.316 181.06 180.797 186.541 178.356 191.85L174.904 199.358C174.136 201.027 174.136 202.948 174.904 204.617L178.356 212.126C180.797 217.435 175.316 222.916 170.007 220.474L162.499 217.022C160.83 216.254 158.909 216.254 157.24 217.022L149.731 220.474C144.422 222.916 138.941 217.435 141.383 212.126L144.835 204.617C145.602 202.948 145.602 201.027 144.835 199.358L141.383 191.85Z" fill="#9495BC"/>
</mask>
<g mask="url(#mask0_47_53)">
<g filter="url(#filter0_f_47_53)">
<path d="M158.682 199.8L144.682 184.138C144.682 180.249 154.016 185.758 158.682 188.998V199.8Z" fill="#7B7BAA"/>
</g>
<g filter="url(#filter1_f_47_53)">
<path d="M162.04 201.089L175.682 186.3C179.281 186.207 176.572 196.391 173.692 201.096L162.04 201.089Z" fill="#60618E"/>
</g>
<g filter="url(#filter2_f_47_53)">
<path d="M160.799 203.819L176.659 219.029C176.479 222.727 165.024 219.108 159.862 215.766L160.799 203.819Z" fill="#61618A"/>
</g>
<g filter="url(#filter3_f_47_53)">
<path d="M157.709 202.09L143.73 216.057C140.05 216.152 142.842 206.548 145.796 202.108L157.709 202.09Z" fill="#7B7BA4"/>
</g>
<g filter="url(#filter4_f_47_53)">
<path d="M161.675 201.914L176.826 218.238C180.606 218.14 177.184 206.519 173.896 201.243L161.675 201.914Z" fill="#4F517C"/>
</g>
<g filter="url(#filter5_f_47_53)">
<path d="M158.809 202.387L143.847 218.884C144.268 222.642 155.553 218.235 160.527 214.506L158.809 202.387Z" fill="#505178"/>
</g>
<g filter="url(#filter6_f_47_53)">
<path d="M149.182 210.8L156.682 201.3L151.182 192.3L159.682 199.3L169.682 192.3L162.682 201.3L168.682 210.8L159.682 203.3L149.182 210.8Z" fill="#B9B9D4"/>
</g>
</g>
<path d="M79.6824 233.451C61.2824 195.851 25.0157 203.451 9.18237 211.951L0.682373 197.8L1.68237 191.8C32.4824 169 28.6824 139.95 19.6824 124.45C19.5196 124.532 21.6824 119.8 21.6824 119.8L40.6824 113.8C51.8824 137 44.0157 164.3 38.1824 173.8L149.182 112.451C152.782 110.051 155.682 110.616 157.182 111.95C158.682 113.283 164.315 113.829 165.182 117.3C166.182 121.3 165.462 124.734 162.682 126.3C132.516 143.3 69.5824 177.35 45.1824 190.95C78.3824 191.35 95.0157 206.634 100.182 214.8L97.6824 220.3C93.121 223.725 79.6824 233.451 79.6824 233.451Z" fill="#8A8CB4"/>
<path d="M11.1824 206.951L1.68237 191.451C32.4743 168.657 30.6833 134.968 21.6895 119.463C21.6557 119.469 21.6552 119.464 21.6824 119.45C21.6847 119.455 21.6871 119.459 21.6895 119.463C22.0693 119.394 26.6518 117.961 43.1824 112.45C54.3824 135.65 43.5157 161.95 37.6824 171.45L151.182 107.451C154.782 105.051 157.682 105.616 159.182 106.95C160.682 108.283 164.315 112.979 165.182 116.45C166.182 120.45 163.182 121.95 162.182 122.95C132.016 139.95 71.5824 172.35 47.1824 185.95C80.3824 186.35 95.0157 206.284 100.182 214.451C97.849 216.451 90.8824 222.051 81.6824 228.451C63.2824 190.851 27.0157 198.451 11.1824 206.951Z" fill="#C7C7E1"/>
<mask id="mask1_47_53" style="mask-type:alpha" maskUnits="userSpaceOnUse" x="1" y="105" width="165" height="124">
<path d="M11.1824 206.951L1.68237 191.451C32.4743 168.657 30.6833 134.968 21.6895 119.463C21.6557 119.469 21.6552 119.464 21.6824 119.45C21.6847 119.455 21.6871 119.459 21.6895 119.463C22.0693 119.394 26.6518 117.961 43.1824 112.45C54.3824 135.65 43.5157 161.95 37.6824 171.45L151.182 107.451C154.782 105.051 157.682 105.616 159.182 106.95C160.682 108.283 164.315 112.979 165.182 116.45C166.182 120.45 163.182 121.95 162.182 122.95C132.016 139.95 71.5824 172.35 47.1824 185.95C80.3824 186.35 95.0157 206.284 100.182 214.451C97.849 216.451 90.8824 222.051 81.6824 228.451C63.2824 190.851 27.0157 198.451 11.1824 206.951Z" fill="#C7C7E1"/>
</mask>
<g mask="url(#mask1_47_53)">
<g filter="url(#filter7_f_47_53)">
<path d="M29.1824 123.3C31.6824 118.8 39.849 114.8 44.6824 112.8V110.8L21.6824 119.8C23.5157 130.3 25.0998 154.746 27.1824 149.8C31.1824 140.3 26.6824 127.8 29.1824 123.3Z" fill="#F3F4FF"/>
</g>
<g filter="url(#filter8_f_47_53)">
<path d="M9.1825 189.299C17.1825 183.299 20.8492 171.133 21.6825 165.799L21.1824 165.299L-1.31763 190.299L8.18237 207.299C9.18237 208.299 11.9824 209.199 15.1825 204.799C9.6825 199.299 6.6825 191.799 9.1825 189.299Z" fill="#F3F4FF"/>
<path d="M90.1824 221.799C82.5824 224.199 76.0157 218.799 73.6824 215.799L72.1824 217.299L81.6824 230.799C87.6824 226.799 97.7824 219.399 90.1824 221.799Z" fill="#F3F4FF"/>
<path d="M40.1824 170.299V168.799L140.682 106.3L158.682 100.8L169.682 117.3C167.349 120.634 162.882 126.5 163.682 123.3C164.682 119.3 162.182 115.299 158.682 111.799C155.882 108.999 152.516 110.633 151.182 111.799L46.6824 171.299L40.1824 170.299Z" fill="#F3F4FF"/>
</g>
</g>
<path d="M101.28 13.8355C101.895 8.29964 95.2909 4.98627 91.2206 8.7884L72.2607 26.4992C70.981 27.6946 69.2429 28.2712 67.5025 28.0779L41.7159 25.2134C36.1801 24.5985 32.8667 31.2022 36.6689 35.2725L54.3797 54.2324C55.575 55.5121 56.1517 57.2502 55.9584 58.9906L53.0939 84.7772C52.4789 90.313 59.0827 93.6264 63.1529 89.8242L82.1129 72.1134C83.3926 70.9181 85.1306 70.3414 86.8711 70.5347L112.658 73.3992C118.193 74.0142 121.507 67.4104 117.705 63.3401L99.9939 44.3802C98.7985 43.1005 98.2219 41.3625 98.4152 39.622L101.28 13.8355Z" fill="#8AA6E4"/>
<mask id="mask2_47_53" style="mask-type:alpha" maskUnits="userSpaceOnUse" x="35" y="7" width="85" height="85">
<path d="M101.374 14.1167C101.989 8.58089 95.3851 5.26752 91.3149 9.06965L72.3549 26.7804C71.0752 27.9758 69.3372 28.5525 67.5967 28.3591L41.8102 25.4947C36.2743 24.8797 32.961 31.4834 36.7631 35.5537L54.4739 54.5137C55.6693 55.7934 56.2459 57.5314 56.0526 59.2719L53.1881 85.0584C52.5732 90.5942 59.1769 93.9076 63.2472 90.1055L82.2071 72.3947C83.4868 71.1993 85.2249 70.6226 86.9653 70.816L112.752 73.6805C118.288 74.2954 121.601 67.6917 117.799 63.6214L100.088 44.6614C98.8928 43.3818 98.3161 41.6437 98.5094 39.9033L101.374 14.1167Z" fill="#9495BC"/>
</mask>
<g mask="url(#mask2_47_53)">
<g filter="url(#filter9_f_47_53)">
<path d="M78.141 45.8282L97.0404 7.52411C94.6633 0.359651 79.0484 16.8074 71.538 25.9269L78.141 45.8282Z" fill="#7C94D4"/>
</g>
<g filter="url(#filter10_f_47_53)">
<path d="M73.4961 49.1585L35.1434 28.5827C27.5929 30.8735 40.0942 49.6461 49.2568 57.1981L73.4961 49.1585Z" fill="#758ECF"/>
</g>
<g filter="url(#filter11_f_47_53)">
<path d="M76.6427 52.8835L55.6225 92.8174C58.3707 99.9203 78.3248 85.4596 86.2095 75.6038L76.6427 52.8835Z" fill="#728BCB"/>
</g>
<g filter="url(#filter12_f_47_53)">
<path d="M80.661 48.8564L120.076 69.7427C127.854 67.3828 115.042 48.2613 105.633 40.581L80.661 48.8564Z" fill="#7C94D1"/>
</g>
<g filter="url(#filter13_f_47_53)">
<path d="M74.5656 50.565L54.746 93.7282C47.0061 96.0765 46.1643 70.307 49.3036 57.4388L74.5656 50.565Z" fill="#5D71AA"/>
</g>
<g filter="url(#filter14_f_47_53)">
<path d="M79.2855 49.6159L121.285 72.929C122.96 80.844 96.7262 79.5717 83.9516 75.3845L79.2855 49.6159Z" fill="#6478AE"/>
</g>
<g filter="url(#filter15_f_47_53)">
<path d="M97.8797 57.5571L79.7831 47.6006L85.563 30.5623L76.2136 45.4248L57.5639 39.852L74.5629 49.3326L68.3671 67.349L78.2222 51.4787L97.8797 57.5571Z" fill="#95B3F5"/>
</g>
</g>
<defs>
<filter id="filter0_f_47_53" x="142.682" y="180.8" width="18" height="21" filterUnits="userSpaceOnUse" color-interpolation-filters="sRGB">
<feFlood flood-opacity="0" result="BackgroundImageFix"/>
<feBlend mode="normal" in="SourceGraphic" in2="BackgroundImageFix" result="shape"/>
<feGaussianBlur stdDeviation="1" result="effect1_foregroundBlur_47_53"/>
</filter>
<filter id="filter1_f_47_53" x="160.04" y="184.299" width="19.3667" height="18.7968" filterUnits="userSpaceOnUse" color-interpolation-filters="sRGB">
<feFlood flood-opacity="0" result="BackgroundImageFix"/>
<feBlend mode="normal" in="SourceGraphic" in2="BackgroundImageFix" result="shape"/>
<feGaussianBlur stdDeviation="1" result="effect1_foregroundBlur_47_53"/>
</filter>
<filter id="filter2_f_47_53" x="157.862" y="201.819" width="20.7972" height="20.7673" filterUnits="userSpaceOnUse" color-interpolation-filters="sRGB">
<feFlood flood-opacity="0" result="BackgroundImageFix"/>
<feBlend mode="normal" in="SourceGraphic" in2="BackgroundImageFix" result="shape"/>
<feGaussianBlur stdDeviation="1" result="effect1_foregroundBlur_47_53"/>
</filter>
<filter id="filter3_f_47_53" x="139.973" y="200.09" width="19.7366" height="17.9681" filterUnits="userSpaceOnUse" color-interpolation-filters="sRGB">
<feFlood flood-opacity="0" result="BackgroundImageFix"/>
<feBlend mode="normal" in="SourceGraphic" in2="BackgroundImageFix" result="shape"/>
<feGaussianBlur stdDeviation="1" result="effect1_foregroundBlur_47_53"/>
</filter>
<filter id="filter4_f_47_53" x="159.675" y="199.243" width="20.8091" height="20.9946" filterUnits="userSpaceOnUse" color-interpolation-filters="sRGB">
<feFlood flood-opacity="0" result="BackgroundImageFix"/>
<feBlend mode="normal" in="SourceGraphic" in2="BackgroundImageFix" result="shape"/>
<feGaussianBlur stdDeviation="1" result="effect1_foregroundBlur_47_53"/>
</filter>
<filter id="filter5_f_47_53" x="141.847" y="200.387" width="20.6803" height="21.9291" filterUnits="userSpaceOnUse" color-interpolation-filters="sRGB">
<feFlood flood-opacity="0" result="BackgroundImageFix"/>
<feBlend mode="normal" in="SourceGraphic" in2="BackgroundImageFix" result="shape"/>
<feGaussianBlur stdDeviation="1" result="effect1_foregroundBlur_47_53"/>
</filter>
<filter id="filter6_f_47_53" x="147.182" y="190.3" width="24.5" height="22.5" filterUnits="userSpaceOnUse" color-interpolation-filters="sRGB">
<feFlood flood-opacity="0" result="BackgroundImageFix"/>
<feBlend mode="normal" in="SourceGraphic" in2="BackgroundImageFix" result="shape"/>
<feGaussianBlur stdDeviation="1" result="effect1_foregroundBlur_47_53"/>
</filter>
<filter id="filter7_f_47_53" x="19.6824" y="108.8" width="27" height="43.6528" filterUnits="userSpaceOnUse" color-interpolation-filters="sRGB">
<feFlood flood-opacity="0" result="BackgroundImageFix"/>
<feBlend mode="normal" in="SourceGraphic" in2="BackgroundImageFix" result="shape"/>
<feGaussianBlur stdDeviation="1" result="effect1_foregroundBlur_47_53"/>
</filter>
<filter id="filter8_f_47_53" x="-3.31763" y="98.8002" width="175" height="133.999" filterUnits="userSpaceOnUse" color-interpolation-filters="sRGB">
<feFlood flood-opacity="0" result="BackgroundImageFix"/>
<feBlend mode="normal" in="SourceGraphic" in2="BackgroundImageFix" result="shape"/>
<feGaussianBlur stdDeviation="1" result="effect1_foregroundBlur_47_53"/>
</filter>
<filter id="filter9_f_47_53" x="68.3488" y="2.57619" width="31.8808" height="46.4411" filterUnits="userSpaceOnUse" color-interpolation-filters="sRGB">
<feFlood flood-opacity="0" result="BackgroundImageFix"/>
<feBlend mode="normal" in="SourceGraphic" in2="BackgroundImageFix" result="shape"/>
<feGaussianBlur stdDeviation="1.59459" result="effect1_foregroundBlur_47_53"/>
</filter>
<filter id="filter10_f_47_53" x="29.6323" y="25.3936" width="47.0529" height="34.9937" filterUnits="userSpaceOnUse" color-interpolation-filters="sRGB">
<feFlood flood-opacity="0" result="BackgroundImageFix"/>
<feBlend mode="normal" in="SourceGraphic" in2="BackgroundImageFix" result="shape"/>
<feGaussianBlur stdDeviation="1.59459" result="effect1_foregroundBlur_47_53"/>
</filter>
<filter id="filter11_f_47_53" x="52.4334" y="49.6944" width="36.9653" height="48.206" filterUnits="userSpaceOnUse" color-interpolation-filters="sRGB">
<feFlood flood-opacity="0" result="BackgroundImageFix"/>
<feBlend mode="normal" in="SourceGraphic" in2="BackgroundImageFix" result="shape"/>
<feGaussianBlur stdDeviation="1.59459" result="effect1_foregroundBlur_47_53"/>
</filter>
<filter id="filter12_f_47_53" x="77.4718" y="37.3919" width="48.1934" height="35.54" filterUnits="userSpaceOnUse" color-interpolation-filters="sRGB">
<feFlood flood-opacity="0" result="BackgroundImageFix"/>
<feBlend mode="normal" in="SourceGraphic" in2="BackgroundImageFix" result="shape"/>
<feGaussianBlur stdDeviation="1.59459" result="effect1_foregroundBlur_47_53"/>
</filter>
<filter id="filter13_f_47_53" x="44.4063" y="47.3758" width="33.3485" height="49.6919" filterUnits="userSpaceOnUse" color-interpolation-filters="sRGB">
<feFlood flood-opacity="0" result="BackgroundImageFix"/>
<feBlend mode="normal" in="SourceGraphic" in2="BackgroundImageFix" result="shape"/>
<feGaussianBlur stdDeviation="1.59459" result="effect1_foregroundBlur_47_53"/>
</filter>
<filter id="filter14_f_47_53" x="76.0963" y="46.4268" width="48.4543" height="35.4683" filterUnits="userSpaceOnUse" color-interpolation-filters="sRGB">
<feFlood flood-opacity="0" result="BackgroundImageFix"/>
<feBlend mode="normal" in="SourceGraphic" in2="BackgroundImageFix" result="shape"/>
<feGaussianBlur stdDeviation="1.59459" result="effect1_foregroundBlur_47_53"/>
</filter>
<filter id="filter15_f_47_53" x="54.3748" y="27.3731" width="46.6942" height="43.1651" filterUnits="userSpaceOnUse" color-interpolation-filters="sRGB">
<feFlood flood-opacity="0" result="BackgroundImageFix"/>
<feBlend mode="normal" in="SourceGraphic" in2="BackgroundImageFix" result="shape"/>
<feGaussianBlur stdDeviation="1.59459" result="effect1_foregroundBlur_47_53"/>
</filter>
</defs>
</svg>
