<svg width="120" height="147" viewBox="0 0 120 147" fill="none" xmlns="http://www.w3.org/2000/svg">
<path d="M89.7795 119.085C88.2282 115.712 91.7111 112.229 95.0848 113.78L99.8559 115.974C100.917 116.462 102.137 116.462 103.198 115.974L107.969 113.78C111.343 112.229 114.826 115.712 113.274 119.085L111.081 123.856C110.593 124.917 110.593 126.138 111.081 127.198L113.274 131.97C114.826 135.343 111.343 138.826 107.969 137.275L103.198 135.081C102.137 134.593 100.917 134.593 99.8559 135.081L95.0848 137.275C91.7111 138.826 88.2282 135.343 89.7795 131.97L91.9733 127.198C92.461 126.138 92.461 124.917 91.9733 123.856L89.7795 119.085Z" fill="#F2F2F2"/>
<path d="M12.2066 85.5434C23.2965 100.736 21.4833 116.264 8.34273 128.403L15.9992 138.158C30.9128 128.28 46.4272 130.209 58.5485 144.592L68.3948 132.716C59.3845 123.359 44.2343 119.982 34.0488 123.993L95.3648 75.8721C97.1027 74.5082 97.4059 71.9938 96.042 70.2559L93.3245 66.7933C91.9607 65.0554 89.4462 64.7523 87.7083 66.1161L26.3923 114.237C32.7093 105.297 33.0301 89.7782 26.0826 78.8021L12.2066 85.5434Z" fill="#FEFEFF"/>
<path d="M21.5005 21.4194C18.9446 18.7258 21.119 14.3062 24.8126 14.6873L36.8867 15.933C38.048 16.0528 39.2036 15.6593 40.0505 14.8558L48.8556 6.50085C51.5492 3.94496 55.9689 6.11937 55.5878 9.81301L54.342 21.8871C54.2222 23.0483 54.6157 24.204 55.4193 25.0509L63.7742 33.856C66.3301 36.5496 64.1557 40.9692 60.462 40.5881L48.388 39.3424C47.2267 39.2226 46.071 39.6161 45.2242 40.4197L36.419 48.7746C33.7254 51.3305 29.3058 49.1561 29.6869 45.4624L30.9326 33.3883C31.0524 32.2271 30.659 31.0714 29.8554 30.2246L21.5005 21.4194Z" fill="#AFD1FF"/>
</svg>
