<svg width="20" height="20" viewBox="0 0 20 20" fill="none" xmlns="http://www.w3.org/2000/svg">
<path d="M18.3461 13.7862C18.1181 13.9442 17.8841 14.0682 17.6461 14.1442C16.8561 14.3942 15.8821 14.1642 15.0081 13.8042C14.3841 13.5462 13.7301 13.2122 13.0441 12.7902C13.4021 11.9162 13.7381 10.9182 14.0241 9.81423C14.4681 8.10023 14.6801 6.59023 14.7241 5.26423C14.7521 4.44423 14.7121 3.69423 14.6221 3.01223C14.4981 2.07423 14.2101 1.12023 13.5981 0.558227C13.4041 0.384227 13.1681 0.238227 12.9041 0.118227C14.1541 -0.0177729 15.2641 -0.0277729 16.2441 0.0442271C17.2741 0.132227 18.3221 0.386227 18.9341 0.986227C19.5461 1.58623 19.8161 2.63223 19.9241 3.65823C20.0241 4.63823 20.0321 5.74823 19.9161 7.00423C19.7981 8.24223 19.5581 9.61823 19.1641 11.1442C18.9181 12.0882 18.6361 12.9902 18.3481 13.7862H18.3461ZM3.25213 13.0102C3.22813 12.7342 3.23813 12.4682 3.29213 12.2242C3.47013 11.4142 4.15613 10.6882 4.90613 10.1082C5.44213 9.69823 6.05613 9.29823 6.76613 8.91423C7.34413 9.66223 8.04013 10.4502 8.85413 11.2502C10.1161 12.4922 11.3181 13.4302 12.4441 14.1302C13.1401 14.5642 13.8081 14.9042 14.4441 15.1682C15.3181 15.5282 16.2881 15.7582 17.0821 15.5082C17.3301 15.4262 17.5741 15.2962 17.8101 15.1282C17.3021 16.2782 16.7561 17.2462 16.2041 18.0582C15.6121 18.9062 14.8701 19.6882 14.0441 19.9162C13.2181 20.1462 12.1781 19.8582 11.2361 19.4382C10.3381 19.0362 9.37213 18.4862 8.34213 17.7582C7.33013 17.0382 6.25613 16.1422 5.13213 15.0362C4.43613 14.3522 3.79613 13.6562 3.25213 13.0102ZM11.4481 0.324227C11.7001 0.442227 11.9241 0.584227 12.1081 0.752227C12.7201 1.31223 13.0061 2.27023 13.1341 3.20823C13.2221 3.87623 13.2601 4.61023 13.2381 5.41623C12.3001 5.54223 11.2701 5.75023 10.1701 6.05623C8.46413 6.52823 7.05013 7.10023 5.88013 7.72623C5.15613 8.11223 4.52613 8.52023 3.98213 8.94023C3.23213 9.51623 2.54813 10.2422 2.36813 11.0542C2.31413 11.3102 2.30413 11.5862 2.33413 11.8742C1.59213 10.8602 1.02613 9.90223 0.60013 9.01823C0.16013 8.07823 -0.14387 7.04423 0.0701301 6.21623C0.28413 5.38623 1.05413 4.62823 1.88813 4.02423C2.68613 3.44623 3.64413 2.88423 4.79013 2.35823C5.92013 1.84223 7.23413 1.36023 8.75213 0.940227C9.69213 0.680227 10.6161 0.472227 11.4481 0.326227V0.324227Z" fill="white"/>
</svg>
